<svg height="218.03070740970543" width="200.00000000000003" style="width: 200px; height: 218.031px; position: absolute; top: 50%; left: 50%; transform: translate(-50%, -50%) scale(1); z-index: 0; cursor: pointer;"><defs id="SvgjsDefs1001"><linearGradient id="SvgjsLinearGradient1015"><stop id="SvgjsStop1016" stop-color="#fbb040" offset="0"></stop><stop id="SvgjsStop1017" stop-color="#f9ed32" offset="1"></stop></linearGradient><linearGradient id="SvgjsLinearGradient1018"><stop id="SvgjsStop1019" stop-color="#fbb040" offset="0"></stop><stop id="SvgjsStop1020" stop-color="#f9ed32" offset="1"></stop></linearGradient></defs><g id="SvgjsG1007" featurekey="symbolFeature-0" transform="matrix(1.0029889486950707,0,0,1.0029889486950707,50.01805392733778,-16.427955699893023)" fill="url(#SvgjsLinearGradient1015)"><path xmlns="http://www.w3.org/2000/svg" d="M96.037,16.379H3.629c-2.014,0-3.647,1.633-3.647,3.648v56.537c0,2.016,1.633,3.648,3.647,3.648h92.408  c2.015,0,3.647-1.633,3.647-3.648V20.027C99.685,18.012,98.052,16.379,96.037,16.379z M92.309,71.25c0,1.333-1.16,2.416-2.589,2.416  H9.948c-1.431,0-2.59-1.083-2.59-2.416V25.343c0-1.335,1.159-2.417,2.59-2.417H89.72c1.429,0,2.589,1.083,2.589,2.417V71.25z"></path><path xmlns="http://www.w3.org/2000/svg" d="M49.833,34.008c-7.89,0-14.287,6.397-14.287,14.287c0,7.891,6.397,14.287,14.287,14.287S64.12,56.186,64.12,48.295  C64.12,40.405,57.723,34.008,49.833,34.008z M45.315,57.662V39.339l13.779,8.883L45.315,57.662z"></path></g><g id="SvgjsG1008" featurekey="nameFeature-0" transform="matrix(1.196351434805729,0,0,1.196351434805729,-2.336833827158105,70.9851041595739)" fill="#ffffff"><path d="M37.715 40 l-7.4414 0 l-1.875 -20.234 l-6.0742 20.234 l-4.9219 0 l-6.0742 -20.332 l-1.8945 20.332 l-7.4805 0 l2.5195 -28.711 l10.879 0 l4.4922 14.668 l4.5508 -14.668 l10.84 0 z M41.91550234375 40 l0 -28.711 l7.4414 0 l0 28.711 l-7.4414 0 z M74.5929609375 11.289000000000001 l7.4414 0 l0 28.711 l-8.8477 0 l-10.957 -18.633 l0 18.633 l-7.4414 0 l0 -28.711 l8.75 0 l11.055 18.535 l0 -18.535 z M105.47267578125 11.289000000000001 l7.4414 0 l0 28.711 l-7.4414 0 l0 -11.191 l-10.586 0 l0 11.191 l-7.4414 0 l0 -28.711 l7.4414 0 l0 11.113 l10.586 0 l0 -11.113 z M138.072578125 40 l-1.8555 -5.3125 l-11.484 0 l-1.8359 5.3125 l-7.5586 0 l10.566 -28.711 l9.1602 0 l10.566 28.711 l-7.5586 0 z M126.861578125 28.555 l7.2266 0 l-3.6133 -10.391 z M158.01507421875 40.39063 c-6.2891 0 -11.406 -3.0273 -12.207 -8.7891 l7.7148 -1.7578 c0.21484 3.125 2.168 4.5898 4.8047 4.5898 c1.9141 0 3.0859 -0.91797 3.0859 -2.5586 c0 -2.1484 -2.7539 -2.9492 -5.957 -4.043 c-4.043 -1.3477 -8.5742 -3.0273 -8.5742 -8.3203 c0 -5.3516 4.3359 -8.6328 10.527 -8.6328 c5.0391 0 10.527 1.9922 11.719 7.9297 l-7.1484 1.7578 c-0.41016 -2.5977 -1.7773 -3.7305 -4.082 -3.7305 c-2.0508 0 -3.4961 0.80078 -3.4961 2.4805 c0 1.6016 2.5781 2.2461 5.5273 3.2031 c4.1211 1.3672 9.1992 3.2422 9.1992 8.9258 c0 6.3086 -5.3125 8.9453 -11.113 8.9453 z"></path></g><g id="SvgjsG1009" featurekey="nameFeature-1" transform="matrix(1.526451390654375,0,0,1.526451390654375,-1.4608136431251402,127.3596750002009)" fill="#ffffff"><path d="M13.164 40.39063 c-6.2891 0 -11.406 -3.0273 -12.207 -8.7891 l7.7148 -1.7578 c0.21484 3.125 2.168 4.5898 4.8047 4.5898 c1.9141 0 3.0859 -0.91797 3.0859 -2.5586 c0 -2.1484 -2.7539 -2.9492 -5.957 -4.043 c-4.043 -1.3477 -8.5742 -3.0273 -8.5742 -8.3203 c0 -5.3516 4.3359 -8.6328 10.527 -8.6328 c5.0391 0 10.527 1.9922 11.719 7.9297 l-7.1484 1.7578 c-0.41016 -2.5977 -1.7773 -3.7305 -4.082 -3.7305 c-2.0508 0 -3.4961 0.80078 -3.4961 2.4805 c0 1.6016 2.5781 2.2461 5.5273 3.2031 c4.1211 1.3672 9.1992 3.2422 9.1992 8.9258 c0 6.3086 -5.3125 8.9453 -11.113 8.9453 z M43.478496093749996 3.4769999999999968 l-4.4531 5.332 l-4.2383 0 l5.293 -7.7344 z M45.353496093749996 17.754 l-10 0 l0 4.6875 l8.9063 0 l0 6.4063 l-8.9063 0 l0 4.6289 l10 0 l0 6.5234 l-17.441 0 l0 -28.711 l17.441 0 l0 6.4648 z M73.7332734375 40 l-8.8281 0 l-7.4805 -12.305 l0 12.305 l-7.4414 0 l0 -28.711 l10.996 0 c6.875 0 9.6094 3.9453 9.6094 8.8672 c0 4.043 -2.3828 6.4063 -5.8203 7.1484 z M63.4992734375 20.234 c0 -1.7578 -0.99609 -2.8711 -3.75 -2.8711 l-2.3242 0 l0 5.7617 l2.3242 0 c2.7539 0 3.75 -1.1328 3.75 -2.8906 z M75.96140078125 40 l0 -28.711 l7.4414 0 l0 28.711 l-7.4414 0 z M106.275859375 17.754 l-10 0 l0 4.6875 l8.9063 0 l0 6.4063 l-8.9063 0 l0 4.6289 l10 0 l0 6.5234 l-17.441 0 l0 -28.711 l17.441 0 l0 6.4648 z M120.86663671875 40.39063 c-6.2891 0 -11.406 -3.0273 -12.207 -8.7891 l7.7148 -1.7578 c0.21484 3.125 2.168 4.5898 4.8047 4.5898 c1.9141 0 3.0859 -0.91797 3.0859 -2.5586 c0 -2.1484 -2.7539 -2.9492 -5.957 -4.043 c-4.043 -1.3477 -8.5742 -3.0273 -8.5742 -8.3203 c0 -5.3516 4.3359 -8.6328 10.527 -8.6328 c5.0391 0 10.527 1.9922 11.719 7.9297 l-7.1484 1.7578 c-0.41016 -2.5977 -1.7773 -3.7305 -4.082 -3.7305 c-2.0508 0 -3.4961 0.80078 -3.4961 2.4805 c0 1.6016 2.5781 2.2461 5.5273 3.2031 c4.1211 1.3672 9.1992 3.2422 9.1992 8.9258 c0 6.3086 -5.3125 8.9453 -11.113 8.9453 z"></path></g><g id="SvgjsG1010" featurekey="sloganFeature-0" transform="matrix(0.6227189412561751,0,0,0.6227189412561751,-1.1371472762222579,205.4547052760455)" fill="url(#SvgjsLinearGradient1018)"><path d="M7.6953 5.888999999999999 c2.7637 0 4.4824 2.0508 4.4824 4.5605 c0 2.5684 -1.7188 4.4922 -4.4824 4.4922 l-2.9395 0 l0 5.0586 l-2.9297 0 l0 -14.111 l5.8691 0 z M7.207 12.4902 c1.4648 0 2.1484 -0.81055 2.1484 -2.0801 c0 -1.2207 -0.68359 -2.0703 -2.1484 -2.0703 l-2.4512 0 l0 4.1504 l2.4512 0 z M26.3530078125 20 l-1.0254 -2.9102 l-5.9277 0 l-1.0254 2.9102 l-2.998 0 l5.1953 -14.111 l3.584 0 l5.1953 14.111 l-2.998 0 z M20.2588078125 14.6387 l4.209 0 l-2.0996 -5.9863 z M41.1913625 20 l-3.6719 -6.2109 l-0.84961 0 l0 6.2109 l-2.9297 0 l0 -14.111 l5.1172 0 c3.1934 0 4.541 1.8848 4.541 4.2188 c0 1.8945 -1.0742 3.125 -2.9883 3.5352 l4.248 6.3574 l-3.4668 0 z M36.6699625 8.32 l0 3.3691 l1.7285 0 c1.5625 0 2.1973 -0.66406 2.1973 -1.6797 c0 -1.0059 -0.63477 -1.6895 -2.1973 -1.6895 l-1.7285 0 z M58.520976562499996 20 l-1.0254 -2.9102 l-5.9277 0 l-1.0254 2.9102 l-2.998 0 l5.1953 -14.111 l3.584 0 l5.1953 14.111 l-2.998 0 z M52.4267765625 14.6387 l4.209 0 l-2.0996 -5.9863 z M82.8178515625 20 l-1.0254 -2.9102 l-5.9277 0 l-1.0254 2.9102 l-2.998 0 l5.1953 -14.111 l3.584 0 l5.1953 14.111 l-2.998 0 z M76.7236515625 14.6387 l4.209 0 l-2.0996 -5.9863 z M106.37690625 20 l-2.9199 0 l-0.92773 -10.635 l-3.5742 10.635 l-1.8945 0 l-3.5742 -10.635 l-0.9375 10.635 l-2.9297 0 l1.1816 -14.111 l4.1797 0 l3.0078 8.8574 l3.0469 -8.8574 l4.1797 0 z M121.1576953125 20 l-1.0254 -2.9102 l-5.9277 0 l-1.0254 2.9102 l-2.998 0 l5.1953 -14.111 l3.584 0 l5.1953 14.111 l-2.998 0 z M115.0634953125 14.6387 l4.209 0 l-2.0996 -5.9863 z M138.18375 5.888999999999999 l2.9199 0 l0 14.111 l-3.3887 0 l-6.25 -10.088 l0 10.088 l-2.9199 0 l0 -14.111 l3.3496 0 l6.2891 10.029 l0 -10.029 z M155.2101953125 5.888999999999999 l0 2.5781 l-3.3496 0 l0 11.533 l-2.9004 0 l0 -11.533 l-3.3691 0 l0 -2.5781 l9.6191 0 z M167.88109375 8.467 l-5.2344 0 l0 3.2031 l4.6387 0 l0 2.5488 l-4.6387 0 l0 3.1934 l5.2344 0 l0 2.5879 l-8.1836 0 l0 -14.111 l8.1836 0 l0 2.5781 z M177.8564734375 20.19531 c-3.0273 0 -5.3906 -1.4551 -5.8203 -4.1016 l3.0273 -0.69336 c0.19531 1.582 1.3574 2.4023 2.9102 2.4023 c1.1914 0 2.1387 -0.52734 2.1289 -1.7188 c-0.0097656 -1.3281 -1.5723 -1.748 -3.291 -2.2754 c-2.0703 -0.64453 -4.2871 -1.4063 -4.2871 -4.0039 c0 -2.627 2.1484 -4.1113 4.9805 -4.1113 c2.4805 0 4.9805 1.0059 5.5469 3.7109 l-2.832 0.70313 c-0.26367 -1.4063 -1.2109 -2.0215 -2.5391 -2.0215 c-1.1816 0 -2.1875 0.48828 -2.1875 1.6504 c0 1.084 1.3867 1.4453 2.9883 1.9238 c2.1289 0.64453 4.6484 1.4648 4.6484 4.2773 c0 2.998 -2.5098 4.2578 -5.2734 4.2578 z M195.5713171875 20 l0 -14.111 l5.1074 0 c4.502 0 6.7285 2.832 6.7285 7.0508 c0 4.2285 -2.2266 7.0605 -6.7285 7.0605 l-5.1074 0 z M198.5010171875 17.4121 l2.0313 0 c2.5977 0 3.7891 -1.6211 3.7891 -4.4727 s-1.1914 -4.4727 -3.7891 -4.4727 l-2.0313 0 l0 8.9453 z M221.865703125 20 l-1.0254 -2.9102 l-5.9277 0 l-1.0254 2.9102 l-2.998 0 l5.1953 -14.111 l3.584 0 l5.1953 14.111 l-2.998 0 z M215.771503125 14.6387 l4.209 0 l-2.0996 -5.9863 z M235.976578125 5.888999999999999 l9.9316 0 l0 2.168 l-6.377 11.943 l-3.1836 0 l6.3965 -11.611 l-6.7676 0 l0 -2.5 z M255.1416453125 5.888999999999999 l1.6016 0 l0 5.9961 l-1.6016 0 l0 -0.85938 c-0.47852 0.60547 -1.1914 0.97656 -2.0605 0.97656 c-1.6504 0 -2.9785 -1.377 -2.9785 -3.1152 s1.3281 -3.125 2.9785 -3.125 c0.86914 0 1.582 0.38086 2.0605 0.98633 l0 -0.85938 z M253.4130453125 10.6055 c0.94727 0 1.7285 -0.77148 1.7285 -1.7188 c0 -0.95703 -0.78125 -1.709 -1.7285 -1.709 s-1.7188 0.75195 -1.7188 1.709 c0 0.94727 0.77148 1.7188 1.7188 1.7188 z M279.4194140625 20 l-1.0254 -2.9102 l-5.9277 0 l-1.0254 2.9102 l-2.998 0 l5.1953 -14.111 l3.584 0 l5.1953 14.111 l-2.998 0 z M273.3252140625 14.6387 l4.209 0 l-2.0996 -5.9863 z M294.25776875 20 l-3.6719 -6.2109 l-0.84961 0 l0 6.2109 l-2.9297 0 l0 -14.111 l5.1172 0 c3.1934 0 4.541 1.8848 4.541 4.2188 c0 1.8945 -1.0742 3.125 -2.9883 3.5352 l4.248 6.3574 l-3.4668 0 z M289.73636875 8.32 l0 3.3691 l1.7285 0 c1.5625 0 2.1973 -0.66406 2.1973 -1.6797 c0 -1.0059 -0.63477 -1.6895 -2.1973 -1.6895 l-1.7285 0 z M310.3273828125 5.888999999999999 l0 2.5781 l-3.3496 0 l0 11.533 l-2.9004 0 l0 -11.533 l-3.3691 0 l0 -2.5781 l9.6191 0 z M322.99828125 8.467 l-5.2344 0 l0 3.2031 l4.6387 0 l0 2.5488 l-4.6387 0 l0 3.1934 l5.2344 0 l0 2.5879 l-8.1836 0 l0 -14.111 l8.1836 0 l0 2.5781 z"></path></g></svg>