<svg height="63.01935693613535" width="452.67526233965634" style="width: 452.675px; height: 63.0194px; position: absolute; top: 50%; left: 50%; transform: translate(-50%, -50%) scale(1); z-index: 0; cursor: pointer;"><defs id="SvgjsDefs1001"><linearGradient id="SvgjsLinearGradient1013"><stop id="SvgjsStop1014" stop-color="#fbb040" offset="0"></stop><stop id="SvgjsStop1015" stop-color="#f9ed32" offset="1"></stop></linearGradient></defs><g id="SvgjsG1007" featurekey="nameLeftFeature-0" transform="matrix(1.1863304222871098,0,0,1.1863304222871098,-2.3172597786347406,1.0941209838539638)" fill="#ffffff"><path d="M37.715 40 l-7.4414 0 l-1.875 -20.234 l-6.0742 20.234 l-4.9219 0 l-6.0742 -20.332 l-1.8945 20.332 l-7.4805 0 l2.5195 -28.711 l10.879 0 l4.4922 14.668 l4.5508 -14.668 l10.84 0 z M41.91550234375 40 l0 -28.711 l7.4414 0 l0 28.711 l-7.4414 0 z M74.5929609375 11.289000000000001 l7.4414 0 l0 28.711 l-8.8477 0 l-10.957 -18.633 l0 18.633 l-7.4414 0 l0 -28.711 l8.75 0 l11.055 18.535 l0 -18.535 z M105.47267578125 11.289000000000001 l7.4414 0 l0 28.711 l-7.4414 0 l0 -11.191 l-10.586 0 l0 11.191 l-7.4414 0 l0 -28.711 l7.4414 0 l0 11.113 l10.586 0 l0 -11.113 z M138.072578125 40 l-1.8555 -5.3125 l-11.484 0 l-1.8359 5.3125 l-7.5586 0 l10.566 -28.711 l9.1602 0 l10.566 28.711 l-7.5586 0 z M126.861578125 28.555 l7.2266 0 l-3.6133 -10.391 z M158.01507421875 40.39063 c-6.2891 0 -11.406 -3.0273 -12.207 -8.7891 l7.7148 -1.7578 c0.21484 3.125 2.168 4.5898 4.8047 4.5898 c1.9141 0 3.0859 -0.91797 3.0859 -2.5586 c0 -2.1484 -2.7539 -2.9492 -5.957 -4.043 c-4.043 -1.3477 -8.5742 -3.0273 -8.5742 -8.3203 c0 -5.3516 4.3359 -8.6328 10.527 -8.6328 c5.0391 0 10.527 1.9922 11.719 7.9297 l-7.1484 1.7578 c-0.41016 -2.5977 -1.7773 -3.7305 -4.082 -3.7305 c-2.0508 0 -3.4961 0.80078 -3.4961 2.4805 c0 1.6016 2.5781 2.2461 5.5273 3.2031 c4.1211 1.3672 9.1992 3.2422 9.1992 8.9258 c0 6.3086 -5.3125 8.9453 -11.113 8.9453 z"></path></g><g id="SvgjsG1008" featurekey="inlineSymbolFeature-0" transform="matrix(0.9872535640713084,0,0,0.9872535640713084,218.0177706884337,-16.170225839702375)" fill="url(#SvgjsLinearGradient1013)"><path xmlns="http://www.w3.org/2000/svg" d="M96.037,16.379H3.629c-2.014,0-3.647,1.633-3.647,3.648v56.537c0,2.016,1.633,3.648,3.647,3.648h92.408  c2.015,0,3.647-1.633,3.647-3.648V20.027C99.685,18.012,98.052,16.379,96.037,16.379z M92.309,71.25c0,1.333-1.16,2.416-2.589,2.416  H9.948c-1.431,0-2.59-1.083-2.59-2.416V25.343c0-1.335,1.159-2.417,2.59-2.417H89.72c1.429,0,2.589,1.083,2.589,2.417V71.25z"></path><path xmlns="http://www.w3.org/2000/svg" d="M49.833,34.008c-7.89,0-14.287,6.397-14.287,14.287c0,7.891,6.397,14.287,14.287,14.287S64.12,56.186,64.12,48.295  C64.12,40.405,57.723,34.008,49.833,34.008z M45.315,57.662V39.339l13.779,8.883L45.315,57.662z"></path></g><g id="SvgjsG1009" featurekey="nameRightFeature-0" transform="matrix(0.8904956859728984,0,0,0.8904956859728984,326.76330934477903,13.043073140187968)" fill="#ffffff"><path d="M22.57952734375 40.39063 c-6.2891 0 -11.406 -3.0273 -12.207 -8.7891 l7.7148 -1.7578 c0.21484 3.125 2.168 4.5898 4.8047 4.5898 c1.9141 0 3.0859 -0.91797 3.0859 -2.5586 c0 -2.1484 -2.7539 -2.9492 -5.957 -4.043 c-4.043 -1.3477 -8.5742 -3.0273 -8.5742 -8.3203 c0 -5.3516 4.3359 -8.6328 10.527 -8.6328 c5.0391 0 10.527 1.9922 11.719 7.9297 l-7.1484 1.7578 c-0.41016 -2.5977 -1.7773 -3.7305 -4.082 -3.7305 c-2.0508 0 -3.4961 0.80078 -3.4961 2.4805 c0 1.6016 2.5781 2.2461 5.5273 3.2031 c4.1211 1.3672 9.1992 3.2422 9.1992 8.9258 c0 6.3086 -5.3125 8.9453 -11.113 8.9453 z M52.894023437499996 3.4769999999999968 l-4.4531 5.332 l-4.2383 0 l5.293 -7.7344 z M54.769023437499996 17.754 l-10 0 l0 4.6875 l8.9063 0 l0 6.4063 l-8.9063 0 l0 4.6289 l10 0 l0 6.5234 l-17.441 0 l0 -28.711 l17.441 0 l0 6.4648 z M83.14880078125 40 l-8.8281 0 l-7.4805 -12.305 l0 12.305 l-7.4414 0 l0 -28.711 l10.996 0 c6.875 0 9.6094 3.9453 9.6094 8.8672 c0 4.043 -2.3828 6.4063 -5.8203 7.1484 z M72.91480078125 20.234 c0 -1.7578 -0.99609 -2.8711 -3.75 -2.8711 l-2.3242 0 l0 5.7617 l2.3242 0 c2.7539 0 3.75 -1.1328 3.75 -2.8906 z M85.376928125 40 l0 -28.711 l7.4414 0 l0 28.711 l-7.4414 0 z M115.69138671875 17.754 l-10 0 l0 4.6875 l8.9063 0 l0 6.4063 l-8.9063 0 l0 4.6289 l10 0 l0 6.5234 l-17.441 0 l0 -28.711 l17.441 0 l0 6.4648 z M130.2821640625 40.39063 c-6.2891 0 -11.406 -3.0273 -12.207 -8.7891 l7.7148 -1.7578 c0.21484 3.125 2.168 4.5898 4.8047 4.5898 c1.9141 0 3.0859 -0.91797 3.0859 -2.5586 c0 -2.1484 -2.7539 -2.9492 -5.957 -4.043 c-4.043 -1.3477 -8.5742 -3.0273 -8.5742 -8.3203 c0 -5.3516 4.3359 -8.6328 10.527 -8.6328 c5.0391 0 10.527 1.9922 11.719 7.9297 l-7.1484 1.7578 c-0.41016 -2.5977 -1.7773 -3.7305 -4.082 -3.7305 c-2.0508 0 -3.4961 0.80078 -3.4961 2.4805 c0 1.6016 2.5781 2.2461 5.5273 3.2031 c4.1211 1.3672 9.1992 3.2422 9.1992 8.9258 c0 6.3086 -5.3125 8.9453 -11.113 8.9453 z"></path></g></svg>